<?xml version="1.0" encoding="UTF-8" standalone="no"?>
<!-- Created with Inkscape (http://www.inkscape.org/) -->

<svg
   xmlns:dc="http://purl.org/dc/elements/1.1/"
   xmlns:cc="http://creativecommons.org/ns#"
   xmlns:rdf="http://www.w3.org/1999/02/22-rdf-syntax-ns#"
   xmlns:svg="http://www.w3.org/2000/svg"
   xmlns="http://www.w3.org/2000/svg"
   xmlns:sodipodi="http://sodipodi.sourceforge.net/DTD/sodipodi-0.dtd"
   xmlns:inkscape="http://www.inkscape.org/namespaces/inkscape"
   width="597.35999"
   height="597.35999"
   id="svg2"
   version="1.1"
   inkscape:version="0.48.5 r10040"
   sodipodi:docname="toolbar-icon.svg"
   inkscape:export-filename="C:\Users\fru\Desktop\node-webkit\SelectDoor\toolbar-icon.png"
   inkscape:export-xdpi="4.8212132"
   inkscape:export-ydpi="4.8212132">
  <defs
     id="defs4" />
  <sodipodi:namedview
     id="base"
     pagecolor="#ffffff"
     bordercolor="#666666"
     borderopacity="1.0"
     inkscape:pageopacity="0.0"
     inkscape:pageshadow="2"
     inkscape:zoom="0.5"
     inkscape:cx="194.71691"
     inkscape:cy="351.7768"
     inkscape:document-units="px"
     inkscape:current-layer="layer1"
     showgrid="false"
     inkscape:window-width="1366"
     inkscape:window-height="705"
     inkscape:window-x="-8"
     inkscape:window-y="-8"
     inkscape:window-maximized="1" />
  <metadata
     id="metadata7">
    <rdf:RDF>
      <cc:Work
         rdf:about="">
        <dc:format>image/svg+xml</dc:format>
        <dc:type
           rdf:resource="http://purl.org/dc/dcmitype/StillImage" />
        <dc:title></dc:title>
      </cc:Work>
    </rdf:RDF>
  </metadata>
  <g
     inkscape:label="Ebene 1"
     inkscape:groupmode="layer"
     id="layer1"
     transform="translate(0,-455.0001)">
    <path
       id="rect2985"
       d="m 152.95917,480.4235 332.56092,0 c 30.80088,0 55.59725,23.07477 55.59725,51.73714 l 0,544.76176 c 0,28.6624 -24.79637,51.7371 -55.59725,51.7371 l -332.56092,0 c -30.80088,0 -55.597248,-23.0747 -55.597248,-51.7371 l 0,-544.76176 c 0,-28.66237 24.796368,-51.73714 55.597248,-51.73714 z"
       style="fill:none;stroke:#000000;stroke-width:31.18936539;stroke-linecap:butt;stroke-linejoin:round;stroke-miterlimit:4;stroke-opacity:1;stroke-dasharray:none"
       inkscape:connector-curvature="0" />
    <path
       id="rect2985-1"
       d="m 183.06995,543.97115 272.18576,0 c 14.61075,0 26.37317,12.35949 26.37317,27.71185 l 0,488.252 c 0,15.3524 -11.76242,27.7118 -26.37317,27.7118 l -272.18576,0 c -14.61074,0 -26.37317,-12.3594 -26.37317,-27.7118 l 0,-488.252 c 0,-15.35236 11.76243,-27.71185 26.37317,-27.71185 z"
       style="fill:#000000;fill-opacity:1;stroke:#000000;stroke-width:11.95296669;stroke-linecap:butt;stroke-linejoin:round;stroke-miterlimit:4;stroke-opacity:1"
       inkscape:connector-curvature="0" />
    <path
       id="rect3773"
       d="m 217.8122,702.9061 41.80418,0 c 11.29254,0 20.38362,7.99546 20.38362,17.92706 l 0,139.28874 c 0,9.9316 -9.09108,17.92706 -20.38362,17.92706 l -41.80418,0 c -11.29252,0 -20.38363,-7.99546 -20.38363,-17.92706 l 0,-139.28874 c 0,-9.9316 9.09111,-17.92706 20.38363,-17.92706 z"
       style="fill:#ffffff;fill-opacity:1;stroke-width:15;stroke-linejoin:round;stroke-miterlimit:4"
       inkscape:connector-curvature="0" />
    <path
       inkscape:connector-curvature="0"
       style="fill:#ffffff;fill-opacity:1;stroke-width:15;stroke-linejoin:round;stroke-miterlimit:4"
       d="m 72.88702,1052.3622 530.79737,0 c 6.03141,0 10.88702,5.3477 10.88702,11.9903 l 0,176.0193 c 0,6.6427 -4.85561,11.9904 -10.88702,11.9904 l -530.79737,0 C 66.85561,1252.3622 62,1247.0145 62,1240.3718 l 0,-176.0193 c 0,-6.6426 4.85561,-11.9903 10.88702,-11.9903 z"
       id="rect3775" />
  </g>
</svg>
